<?xml version="1.0" encoding="utf-8"?>
<!-- Generator: Adobe Illustrator 25.4.1, SVG Export Plug-In . SVG Version: 6.00 Build 0)  -->
<svg version="1.1" id="Layer_1" xmlns="http://www.w3.org/2000/svg" xmlns:xlink="http://www.w3.org/1999/xlink" x="0px" y="0px"
	 viewBox="0 0 512 512" style="enable-background:new 0 0 512 512;" xml:space="preserve" fill="#00BB00">
<g transform="translate(0.000000,512.000000) scale(0.100000,-0.100000)">
	<path class="st0" d="M2500,5111c-14-5-470-194-1015-420c-775-322-997-419-1022-443c-67-64-65-45-60-764c4-671,8-739,52-974
		c127-670,449-1283,928-1761c287-288,607-509,992-687c107-49,127-56,185-56s79,7,188,57c1125,514,1866,1575,1962,2811
		c5,71,10,386,10,700c0,534-2,574-19,611c-10,22-32,52-48,67c-20,19-338,156-1028,444C2604,5120,2566,5134,2500,5111z M3445,4337
		l870-362l-1-560c0-530-1-568-23-705c-12-80-33-192-46-250c-200-870-782-1604-1584-1995l-102-50l-132,67
		C1617,891,1040,1643,860,2522c-51,250-55,318-55,903v549l870,362c479,200,877,363,885,363S2967,4536,3445,4337z"/>
	<path class="st0" d="M3260,3344c-22-9-201-180-477-457l-443-441l-222,220c-181,180-232,224-270,239c-152,57-301-85-258-245
		c11-40,46-79,313-348c166-167,318-313,337-325c45-28,139-30,190-4c20,9,272,255,561,545c486,487,527,531,539,574
		C3574,3267,3414,3411,3260,3344z"/>
</g>
</svg>
