<?xml version="1.0" encoding="utf-8"?>
<!-- Generator: Adobe Illustrator 25.4.1, SVG Export Plug-In . SVG Version: 6.00 Build 0)  -->
<svg version="1.1" id="Layer_1" xmlns="http://www.w3.org/2000/svg" xmlns:xlink="http://www.w3.org/1999/xlink" x="0px" y="0px"
	 viewBox="0 0 512 512" style="enable-background:new 0 0 512 512;" xml:space="preserve">
<style type="text/css">
	.st0{fill:#FF5149;}
</style>
<g transform="translate(0.000000,512.000000) scale(0.100000,-0.100000)">
	<path class="st0" d="M2500,5111c-14-5-470-194-1015-420c-775-322-997-419-1022-443c-67-64-65-45-60-764c4-671,8-739,52-974
		c127-670,449-1283,928-1761c287-288,607-509,992-687c107-49,127-56,185-56s79,7,188,57c1125,514,1866,1575,1962,2811
		c5,71,10,386,10,700c0,534-2,574-19,611c-10,22-32,52-48,67c-20,19-338,156-1028,444C2604,5120,2566,5134,2500,5111z"/>
</g>
</svg>
