<?xml version="1.0" encoding="utf-8"?>
<!-- Generator: Adobe Illustrator 25.4.1, SVG Export Plug-In . SVG Version: 6.00 Build 0)  -->
<svg version="1.1" id="Layer_1" xmlns="http://www.w3.org/2000/svg" xmlns:xlink="http://www.w3.org/1999/xlink" x="0px" y="0px"
	 viewBox="0 0 512 512" style="enable-background:new 0 0 512 512;" xml:space="preserve">
<style type="text/css">
	.st0{fill:#00BB00;}
</style>
<g transform="translate(0.000000,512.000000) scale(0.100000,-0.100000)">
	<path class="st0" d="M4701,4185c-10,22-32,52-48,67c-20,19-338,156-1028,444c-1021,424-1059,438-1125,415c-14-5-470-194-1015-420
		c-775-322-997-419-1022-443c-67-64-65-45-60-764c4-671,8-739,52-974c127-670,449-1283,928-1761c287-288,607-509,992-687
		c107-49,127-56,185-56c58,0,79,7,188,57c1125,514,1866,1575,1962,2811c5,71,10,386,10,700C4720,4108,4718,4148,4701,4185z
		 M3530,3102c-12-43-53-87-539-574c-289-290-541-536-561-545c-51-26-145-24-190,4c-19,12-171,158-337,325c-267,269-302,308-313,348
		c-43,160,106,302,258,245c38-15,89-59,270-239l222-220l443,441c276,277,455,448,477,457C3414,3411,3574,3267,3530,3102z"/>
</g>
</svg>
